<svg width="56" height="56" viewBox="0 0 56 56" fill="none" xmlns="http://www.w3.org/2000/svg">
<g filter="url(#filter0_d_31_369)">
<path fill-rule="evenodd" clip-rule="evenodd" d="M24.5957 4.22276C23.8267 4.36066 22.541 4.69247 21.7386 4.96C15.5948 7.00855 10.9686 11.6326 8.93593 17.7567C8.18274 20.0258 8 21.2476 8 24.0138C8 26.7801 8.18274 28.0018 8.93593 30.2709C10.9689 36.396 15.6092 41.0332 21.7386 43.0647C24.0092 43.8174 25.2319 44 28 44C30.7681 44 31.9908 43.8174 34.2614 43.0647C40.3908 41.0332 45.0311 36.396 47.0641 30.2709C47.8173 28.0018 48 26.7801 48 24.0138C48 21.2476 47.8173 20.0258 47.0641 17.7567C45.3448 12.5767 41.8174 8.50248 36.9362 6.05882C35.4644 5.32206 33.5209 4.64654 31.9212 4.31607C30.0856 3.93676 26.4483 3.89047 24.5957 4.22276ZM23.1408 12.8989C23.6331 13.1534 23.8661 13.6677 23.8667 14.5006C23.8677 15.9405 24.4806 18.5761 25.0961 19.787C25.4096 20.4037 25.3948 21.099 25.0607 21.4574C24.9151 21.6135 24.3414 21.9541 23.7857 22.2143L22.7754 22.6874L23.0974 23.1988C23.9855 24.6092 25.0793 25.8892 26.4501 27.123C27.3599 27.9419 29.0216 29.1195 29.2576 29.1125C29.335 29.1102 29.5854 28.6982 29.8142 28.1969C30.5371 26.6132 31.0552 26.3736 32.4134 26.995C33.8007 27.6297 36.0985 28.1447 37.543 28.1447C37.9181 28.1447 38.3853 28.2277 38.5815 28.329C39.2444 28.6716 39.307 28.9674 39.3065 31.7531C39.3061 34.0113 39.2818 34.3201 39.0778 34.6545C38.6879 35.2933 38.3029 35.3729 36.4077 35.2066C33.3613 34.9393 30.7802 34.194 28.1419 32.8199C26.2238 31.8209 24.7183 30.698 23.0147 28.9957C21.1612 27.1434 20.1162 25.7007 19.0101 23.4671C17.6638 20.7484 17.064 18.6149 16.8064 15.6284C16.6394 13.6922 16.7555 13.1986 17.4484 12.8977C18.044 12.6391 22.6398 12.64 23.1408 12.8989Z" fill="#149FEE"/>
</g>
<defs>
<filter id="filter0_d_31_369" x="0" y="0" width="56" height="56" filterUnits="userSpaceOnUse" color-interpolation-filters="sRGB">
<feFlood flood-opacity="0" result="BackgroundImageFix"/>
<feColorMatrix in="SourceAlpha" type="matrix" values="0 0 0 0 0 0 0 0 0 0 0 0 0 0 0 0 0 0 127 0" result="hardAlpha"/>
<feOffset dy="4"/>
<feGaussianBlur stdDeviation="4"/>
<feComposite in2="hardAlpha" operator="out"/>
<feColorMatrix type="matrix" values="0 0 0 0 0.0784314 0 0 0 0 0.623529 0 0 0 0 0.933333 0 0 0 0.25 0"/>
<feBlend mode="normal" in2="BackgroundImageFix" result="effect1_dropShadow_31_369"/>
<feBlend mode="normal" in="SourceGraphic" in2="effect1_dropShadow_31_369" result="shape"/>
</filter>
</defs>
</svg>
