<svg width="56" height="56" viewBox="0 0 56 56" fill="none" xmlns="http://www.w3.org/2000/svg">
<g filter="url(#filter0_d_31_367)">
<path fill-rule="evenodd" clip-rule="evenodd" d="M22.9084 4.64438C19.6057 5.5337 16.8317 7.13687 14.168 9.6953C7.56574 16.0364 6.13197 25.4356 10.5056 33.6997L11.7192 35.9923L10.496 39.4904C9.82349 41.4141 9.31879 43.0341 9.37434 43.09C9.43028 43.1456 11.155 42.6652 13.2069 42.0217L16.9376 40.8518L18.771 41.7803C24.7746 44.8211 31.6469 44.734 37.635 41.5416C40.4486 40.042 44.3047 36.1166 45.7317 33.3004C49.7089 25.4496 48.3862 16.5077 42.3115 10.1801C37.3113 4.97213 29.7261 2.80779 22.9084 4.64438ZM23.1486 16.0224C23.8375 17.5633 24.401 18.9882 24.401 19.1892C24.401 19.3903 23.9266 20.1185 23.3468 20.8076C22.395 21.9395 22.3442 22.1569 22.8249 23.0554C24.3558 25.9164 28.9201 29.5944 30.952 29.6048C31.3684 29.6068 32.2915 28.9341 33.004 28.11L34.2987 26.6115L37.1818 28.0064L40.0649 29.4014L39.8524 31.0037C39.6006 32.9027 37.7876 34.6557 35.6629 35.0542C34.0346 35.36 30.393 34.4211 27.4611 32.9398C24.4985 31.443 19.2501 26.0312 17.6765 22.8496C16.1951 19.8555 16.0649 17.8602 17.2053 15.6247C18.134 13.8037 18.932 13.2498 20.6511 13.233C21.8107 13.2218 21.9826 13.4136 23.1486 16.0224Z" fill="#4CAF50"/>
</g>
<defs>
<filter id="filter0_d_31_367" x="0" y="0" width="56" height="56" filterUnits="userSpaceOnUse" color-interpolation-filters="sRGB">
<feFlood flood-opacity="0" result="BackgroundImageFix"/>
<feColorMatrix in="SourceAlpha" type="matrix" values="0 0 0 0 0 0 0 0 0 0 0 0 0 0 0 0 0 0 127 0" result="hardAlpha"/>
<feOffset dy="4"/>
<feGaussianBlur stdDeviation="4"/>
<feComposite in2="hardAlpha" operator="out"/>
<feColorMatrix type="matrix" values="0 0 0 0 0.298039 0 0 0 0 0.686275 0 0 0 0 0.313726 0 0 0 0.25 0"/>
<feBlend mode="normal" in2="BackgroundImageFix" result="effect1_dropShadow_31_367"/>
<feBlend mode="normal" in="SourceGraphic" in2="effect1_dropShadow_31_367" result="shape"/>
</filter>
</defs>
</svg>
