<svg width="70" height="22" viewBox="0 0 70 22" fill="none" xmlns="http://www.w3.org/2000/svg">
<path d="M12.3438 19H1.85547V4.45898H5.60547V16.1875H12.3438V19ZM28.75 11.7344C28.75 14.0521 28.0859 15.8945 26.7578 17.2617C25.4297 18.6224 23.5938 19.3027 21.25 19.3027C18.9128 19.3027 17.0801 18.6224 15.752 17.2617C14.4238 15.8945 13.7598 14.0521 13.7598 11.7344C13.7598 9.39714 14.4238 7.55143 15.752 6.19727C17.0801 4.83659 18.9128 4.15625 21.25 4.15625C23.5807 4.15625 25.4134 4.83659 26.748 6.19727C28.0827 7.55143 28.75 9.39714 28.75 11.7344ZM23.7793 15.416C24.1439 14.9733 24.4141 14.4525 24.5898 13.8535C24.7656 13.248 24.8535 12.5384 24.8535 11.7246C24.8535 10.8522 24.7526 10.11 24.5508 9.49805C24.349 8.88607 24.0853 8.39128 23.7598 8.01367C23.4277 7.62305 23.0436 7.33984 22.6074 7.16406C22.1777 6.98828 21.7285 6.90039 21.2598 6.90039C20.7845 6.90039 20.3353 6.98503 19.9121 7.1543C19.4954 7.32357 19.1113 7.60352 18.7598 7.99414C18.4342 8.35872 18.1673 8.86328 17.959 9.50781C17.7572 10.1458 17.6562 10.888 17.6562 11.7344C17.6562 12.6003 17.7539 13.3392 17.9492 13.9512C18.151 14.5566 18.4147 15.0514 18.7402 15.4355C19.0658 15.8197 19.4466 16.1029 19.8828 16.2852C20.319 16.4674 20.778 16.5586 21.2598 16.5586C21.7415 16.5586 22.2005 16.4674 22.6367 16.2852C23.0729 16.0964 23.4538 15.8066 23.7793 15.416ZM44.4824 18.1699C43.8314 18.4238 42.9688 18.6777 41.8945 18.9316C40.8203 19.179 39.7493 19.3027 38.6816 19.3027C36.2077 19.3027 34.2708 18.6322 32.8711 17.291C31.4714 15.9434 30.7715 14.0846 30.7715 11.7148C30.7715 9.45573 31.4779 7.63607 32.8906 6.25586C34.3034 4.86914 36.2728 4.17578 38.7988 4.17578C39.7559 4.17578 40.6673 4.26367 41.5332 4.43945C42.3991 4.60872 43.3626 4.95052 44.4238 5.46484V8.87305H44.0039C43.8216 8.73633 43.5547 8.54427 43.2031 8.29688C42.8516 8.04297 42.513 7.82812 42.1875 7.65234C41.8099 7.44401 41.3672 7.26497 40.8594 7.11523C40.3581 6.96549 39.8242 6.89062 39.2578 6.89062C38.5938 6.89062 37.9915 6.98828 37.4512 7.18359C36.9108 7.37891 36.4258 7.67839 35.9961 8.08203C35.5859 8.47266 35.2604 8.9707 35.0195 9.57617C34.7852 10.1751 34.668 10.8685 34.668 11.6562C34.668 13.2643 35.0944 14.4948 35.9473 15.3477C36.8001 16.2005 38.0599 16.627 39.7266 16.627C39.8698 16.627 40.026 16.6237 40.1953 16.6172C40.3711 16.6107 40.5306 16.6009 40.6738 16.5879V13.7363H37.7734V10.9922H44.4824V18.1699ZM61.9922 11.7344C61.9922 14.0521 61.3281 15.8945 60 17.2617C58.6719 18.6224 56.8359 19.3027 54.4922 19.3027C52.1549 19.3027 50.3223 18.6224 48.9941 17.2617C47.666 15.8945 47.002 14.0521 47.002 11.7344C47.002 9.39714 47.666 7.55143 48.9941 6.19727C50.3223 4.83659 52.1549 4.15625 54.4922 4.15625C56.8229 4.15625 58.6556 4.83659 59.9902 6.19727C61.3249 7.55143 61.9922 9.39714 61.9922 11.7344ZM57.0215 15.416C57.3861 14.9733 57.6562 14.4525 57.832 13.8535C58.0078 13.248 58.0957 12.5384 58.0957 11.7246C58.0957 10.8522 57.9948 10.11 57.793 9.49805C57.5911 8.88607 57.3275 8.39128 57.002 8.01367C56.6699 7.62305 56.2858 7.33984 55.8496 7.16406C55.4199 6.98828 54.9707 6.90039 54.502 6.90039C54.0267 6.90039 53.5775 6.98503 53.1543 7.1543C52.7376 7.32357 52.3535 7.60352 52.002 7.99414C51.6764 8.35872 51.4095 8.86328 51.2012 9.50781C50.9993 10.1458 50.8984 10.888 50.8984 11.7344C50.8984 12.6003 50.9961 13.3392 51.1914 13.9512C51.3932 14.5566 51.6569 15.0514 51.9824 15.4355C52.3079 15.8197 52.6888 16.1029 53.125 16.2852C53.5612 16.4674 54.0202 16.5586 54.502 16.5586C54.9837 16.5586 55.4427 16.4674 55.8789 16.2852C56.3151 16.0964 56.696 15.8066 57.0215 15.416Z" fill="#EE1448"/>
</svg>
